<svg width="123" height="37" viewBox="0 0 123 37" fill="none" xmlns="http://www.w3.org/2000/svg">
<path d="M6.825 17L0 0.825012H3.675L9.45 15.15L8.375 15.175L13.875 0.825012H17.7L23.2 15.175L22.125 15.15L27.9 0.825012H31.5L24.75 17H20.675L15.275 2.97501H16.325L10.9 17H6.825Z" fill="#B99158"/>
<path d="M36.6451 0.825012H39.9701V17H36.6451V0.825012Z" fill="#B99158"/>
<path d="M49.8506 0.825012V14.225H60.6006V17H46.5256V0.825012H49.8506Z" fill="#B99158"/>
<path d="M69.2637 0.825012V14.225H80.0137V17H65.9387V0.825012H69.2637Z" fill="#B99158"/>
<path d="M88.6768 10.25V14.225H101.152V17H85.3518V0.825012H101.127V3.60001H88.6768V7.62501H98.8768V10.25H88.6768Z" fill="#B99158"/>
<path d="M122.916 0.825012L115.816 11.9V17H112.466V11.9L105.366 0.825012H109.216L115.191 10.5H113.191L119.066 0.825012H122.916Z" fill="#B99158"/>
<path d="M0 36V24.896H1.504V36H0ZM1.024 31.12V29.744H6.816V31.12H1.024ZM1.024 26.272V24.896H7.088V26.272H1.024Z" fill="#B99158"/>
<path d="M13.9105 31.168V29.904H16.9185C17.5692 29.904 18.0705 29.7387 18.4225 29.408C18.7745 29.0774 18.9505 28.6294 18.9505 28.064C18.9505 27.5307 18.7745 27.088 18.4225 26.736C18.0812 26.384 17.5852 26.208 16.9345 26.208H13.9105V24.896H16.9825C17.6865 24.896 18.2998 25.0347 18.8225 25.312C19.3452 25.5787 19.7452 25.9467 20.0225 26.416C20.3105 26.8854 20.4545 27.424 20.4545 28.032C20.4545 28.6614 20.3105 29.2107 20.0225 29.68C19.7452 30.1494 19.3452 30.5174 18.8225 30.784C18.2998 31.04 17.6865 31.168 16.9825 31.168H13.9105ZM12.9025 36V24.896H14.4065V36H12.9025ZM19.3025 36L15.2705 31.024L16.6945 30.528L21.2065 36H19.3025Z" fill="#B99158"/>
<path d="M25.4265 36L29.9705 24.896H31.0585L35.5865 36H33.9545L30.2265 26.608H30.7865L27.0265 36H25.4265ZM27.5865 33.488V32.176H33.4265V33.488H27.5865Z" fill="#B99158"/>
<path d="M45.419 36.16C44.6403 36.16 43.9097 36.016 43.227 35.728C42.555 35.4294 41.963 35.0187 41.451 34.496C40.9497 33.9734 40.555 33.3654 40.267 32.672C39.979 31.9787 39.835 31.232 39.835 30.432C39.835 29.632 39.979 28.8907 40.267 28.208C40.555 27.5147 40.955 26.9067 41.467 26.384C41.979 25.8614 42.5763 25.456 43.259 25.168C43.9523 24.88 44.7043 24.736 45.515 24.736C46.4003 24.736 47.2163 24.9067 47.963 25.248C48.7097 25.5894 49.3337 26.08 49.835 26.72L48.795 27.76C48.443 27.248 47.979 26.8587 47.403 26.592C46.827 26.3147 46.1977 26.176 45.515 26.176C44.7043 26.176 43.9843 26.3574 43.355 26.72C42.7363 27.0827 42.251 27.584 41.899 28.224C41.5577 28.864 41.387 29.6 41.387 30.432C41.387 31.2747 41.563 32.016 41.915 32.656C42.267 33.296 42.7417 33.7974 43.339 34.16C43.9363 34.5227 44.619 34.704 45.387 34.704C46.1657 34.704 46.8377 34.5547 47.403 34.256C47.979 33.9574 48.4217 33.52 48.731 32.944C49.0403 32.3574 49.195 31.6427 49.195 30.8L50.107 31.456H45.307V30.08H50.747V30.304C50.747 31.5947 50.5177 32.6774 50.059 33.552C49.611 34.416 48.9817 35.0667 48.171 35.504C47.371 35.9414 46.4537 36.16 45.419 36.16Z" fill="#B99158"/>
<path d="M57.618 31.168V29.904H60.626C61.2767 29.904 61.778 29.7387 62.13 29.408C62.482 29.0774 62.658 28.6294 62.658 28.064C62.658 27.5307 62.482 27.088 62.13 26.736C61.7887 26.384 61.2927 26.208 60.642 26.208H57.618V24.896H60.69C61.394 24.896 62.0073 25.0347 62.53 25.312C63.0527 25.5787 63.4527 25.9467 63.73 26.416C64.018 26.8854 64.162 27.424 64.162 28.032C64.162 28.6614 64.018 29.2107 63.73 29.68C63.4527 30.1494 63.0527 30.5174 62.53 30.784C62.0073 31.04 61.394 31.168 60.69 31.168H57.618ZM56.61 36V24.896H58.114V36H56.61ZM63.01 36L58.978 31.024L60.402 30.528L64.914 36H63.01Z" fill="#B99158"/>
<path d="M69.134 36L73.678 24.896H74.766L79.294 36H77.662L73.934 26.608H74.494L70.734 36H69.134ZM71.294 33.488V32.176H77.134V33.488H71.294Z" fill="#B99158"/>
<path d="M84.8056 36V24.896H85.8616L86.3096 26.64V36H84.8056ZM92.4856 36L85.6696 26.896L85.8616 24.896L92.6936 33.984L92.4856 36ZM92.4856 36L92.0376 34.352V24.896H93.5416V36H92.4856Z" fill="#B99158"/>
<path d="M105.045 36.16C104.245 36.16 103.504 36.016 102.821 35.728C102.138 35.4294 101.541 35.0187 101.029 34.496C100.528 33.9734 100.138 33.3654 99.861 32.672C99.5837 31.9787 99.445 31.2374 99.445 30.448C99.445 29.648 99.5837 28.9014 99.861 28.208C100.138 27.5147 100.528 26.912 101.029 26.4C101.541 25.8774 102.133 25.472 102.805 25.184C103.488 24.8854 104.229 24.736 105.029 24.736C105.904 24.736 106.672 24.8854 107.333 25.184C107.994 25.4827 108.581 25.888 109.093 26.4L108.053 27.44C107.701 27.0454 107.269 26.736 106.757 26.512C106.256 26.288 105.68 26.176 105.029 26.176C104.442 26.176 103.904 26.2827 103.413 26.496C102.922 26.6987 102.496 26.992 102.133 27.376C101.77 27.76 101.488 28.2134 101.285 28.736C101.093 29.2587 100.997 29.8294 100.997 30.448C100.997 31.0667 101.093 31.6374 101.285 32.16C101.488 32.6827 101.77 33.136 102.133 33.52C102.496 33.904 102.922 34.2027 103.413 34.416C103.904 34.6187 104.442 34.72 105.029 34.72C105.722 34.72 106.325 34.608 106.837 34.384C107.349 34.1494 107.781 33.8347 108.133 33.44L109.173 34.464C108.661 34.9974 108.058 35.4134 107.365 35.712C106.682 36.0107 105.909 36.16 105.045 36.16Z" fill="#B99158"/>
<path d="M114.861 36V24.896H116.365V36H114.861ZM115.885 36V34.624H122.253V36H115.885ZM115.885 30.976V29.664H121.725V30.976H115.885ZM115.885 26.272V24.896H122.173V26.272H115.885Z" fill="#B99158"/>
</svg>
