<svg width="153" height="44" viewBox="0 0 153 44" fill="none" xmlns="http://www.w3.org/2000/svg">
<path d="M7.82489 16.6469L1 0.327893H4.67494L10.4499 14.7804L9.37487 14.8056L14.8748 0.327893H18.6997L24.1996 14.8056L23.1247 14.7804L28.8996 0.327893H32.4995L25.7496 16.6469H21.6747L16.2748 2.49703H17.3247L11.8998 16.6469H7.82489Z" fill="#B99158"/>
<path d="M37.8946 0.327893H41.2195V16.6469H37.8946V0.327893Z" fill="#B99158"/>
<path d="M51.3498 0.327893V13.8472H62.0996V16.6469H48.0249V0.327893H51.3498Z" fill="#B99158"/>
<path d="M71.0126 0.327893V13.8472H81.7624V16.6469H67.6876V0.327893H71.0126Z" fill="#B99158"/>
<path d="M90.6754 9.8368V13.8472H103.15V16.6469H87.3504V0.327893H103.125V3.1276H90.6754V7.18843H100.875V9.8368H90.6754Z" fill="#B99158"/>
<path d="M125.164 0.327893L118.064 11.5015V16.6469H114.714V11.5015L107.614 0.327893H111.464L117.439 10.089H115.439L121.314 0.327893H125.164Z" fill="#B99158"/>
<path d="M130.039 6.83531L129.589 5.97775C129.839 5.60781 130.081 5.19585 130.314 4.74184C130.564 4.27102 130.698 3.8002 130.714 3.32938L129.339 3.05193V0.176557H133.164V2.24481C133.164 3.42186 132.881 4.38032 132.314 5.12018C131.764 5.84322 131.006 6.41494 130.039 6.83531Z" fill="#B99158"/>
<path d="M137.5 11.1484H140.875C140.942 11.7201 141.2 12.2413 141.65 12.7122C142.117 13.1662 142.725 13.5277 143.475 13.7967C144.225 14.049 145.067 14.1751 146 14.1751C146.85 14.1751 147.55 14.0826 148.1 13.8976C148.65 13.7127 149.058 13.452 149.325 13.1157C149.592 12.7794 149.725 12.3759 149.725 11.905C149.725 11.451 149.558 11.1063 149.225 10.8709C148.892 10.6187 148.367 10.4169 147.65 10.2656C146.933 10.0974 145.992 9.92928 144.825 9.76113C143.908 9.62661 143.042 9.44164 142.225 9.20623C141.408 8.95401 140.684 8.63452 140.05 8.24778C139.434 7.86103 138.942 7.39021 138.575 6.83531C138.225 6.2636 138.05 5.591 138.05 4.81751C138.05 3.85905 138.317 3.0183 138.85 2.29525C139.4 1.57221 140.209 1.0089 141.275 0.605341C142.342 0.20178 143.65 0 145.2 0C147.533 0 149.325 0.504451 150.575 1.51335C151.842 2.50544 152.458 3.87587 152.425 5.62463H149.175C149.108 4.63254 148.692 3.9179 147.925 3.48071C147.175 3.04352 146.225 2.82493 145.075 2.82493C144.008 2.82493 143.125 2.98467 142.425 3.30415C141.742 3.62364 141.4 4.17013 141.4 4.94362C141.4 5.24629 141.484 5.51533 141.65 5.75074C141.817 5.96934 142.1 6.16271 142.5 6.33086C142.9 6.49901 143.442 6.65875 144.125 6.81009C144.808 6.96142 145.658 7.11276 146.675 7.2641C147.625 7.39862 148.483 7.58358 149.25 7.81899C150.033 8.03759 150.7 8.33185 151.25 8.70178C151.817 9.0549 152.25 9.5089 152.55 10.0638C152.85 10.6187 153 11.2997 153 12.1068C153 13.0989 152.742 13.9649 152.225 14.7047C151.725 15.4278 150.942 15.9911 149.875 16.3947C148.825 16.7982 147.458 17 145.775 17C144.575 17 143.517 16.8739 142.6 16.6217C141.684 16.3526 140.892 15.9995 140.225 15.5623C139.559 15.1251 139.017 14.6459 138.6 14.1246C138.184 13.6034 137.884 13.0821 137.7 12.5608C137.534 12.0396 137.467 11.5687 137.5 11.1484Z" fill="#B99158"/>
<path d="M1.476 43V30.508H3.168V43H1.476ZM2.628 37.51V35.962H9.144V37.51H2.628ZM2.628 32.056V30.508H9.45V32.056H2.628ZM17.8453 37.564V36.142H21.2293C21.9613 36.142 22.5253 35.956 22.9213 35.584C23.3173 35.212 23.5153 34.708 23.5153 34.072C23.5153 33.472 23.3173 32.974 22.9213 32.578C22.5373 32.182 21.9793 31.984 21.2473 31.984H17.8453V30.508H21.3013C22.0933 30.508 22.7833 30.664 23.3713 30.976C23.9593 31.276 24.4093 31.69 24.7213 32.218C25.0453 32.746 25.2073 33.352 25.2073 34.036C25.2073 34.744 25.0453 35.362 24.7213 35.89C24.4093 36.418 23.9593 36.832 23.3713 37.132C22.7833 37.42 22.0933 37.564 21.3013 37.564H17.8453ZM16.7113 43V30.508H18.4033V43H16.7113ZM23.9113 43L19.3753 37.402L20.9773 36.844L26.0533 43H23.9113ZM31.5208 43L36.6328 30.508H37.8568L42.9508 43H41.1148L36.9208 32.434H37.5508L33.3208 43H31.5208ZM33.9508 40.174V38.698H40.5208V40.174H33.9508ZM54.7324 43.18C53.8564 43.18 53.0344 43.018 52.2664 42.694C51.5104 42.358 50.8444 41.896 50.2684 41.308C49.7044 40.72 49.2604 40.036 48.9364 39.256C48.6124 38.476 48.4504 37.636 48.4504 36.736C48.4504 35.836 48.6124 35.002 48.9364 34.234C49.2604 33.454 49.7104 32.77 50.2864 32.182C50.8624 31.594 51.5344 31.138 52.3024 30.814C53.0824 30.49 53.9284 30.328 54.8404 30.328C55.8364 30.328 56.7544 30.52 57.5944 30.904C58.4344 31.288 59.1364 31.84 59.7004 32.56L58.5304 33.73C58.1344 33.154 57.6124 32.716 56.9644 32.416C56.3164 32.104 55.6084 31.948 54.8404 31.948C53.9284 31.948 53.1184 32.152 52.4104 32.56C51.7144 32.968 51.1684 33.532 50.7724 34.252C50.3884 34.972 50.1964 35.8 50.1964 36.736C50.1964 37.684 50.3944 38.518 50.7904 39.238C51.1864 39.958 51.7204 40.522 52.3924 40.93C53.0644 41.338 53.8324 41.542 54.6964 41.542C55.5724 41.542 56.3284 41.374 56.9644 41.038C57.6124 40.702 58.1104 40.21 58.4584 39.562C58.8064 38.902 58.9804 38.098 58.9804 37.15L60.0064 37.888H54.6064V36.34H60.7264V36.592C60.7264 38.044 60.4684 39.262 59.9524 40.246C59.4484 41.218 58.7404 41.95 57.8284 42.442C56.9284 42.934 55.8964 43.18 54.7324 43.18ZM69.1763 37.564V36.142H72.5603C73.2923 36.142 73.8563 35.956 74.2523 35.584C74.6483 35.212 74.8463 34.708 74.8463 34.072C74.8463 33.472 74.6483 32.974 74.2523 32.578C73.8683 32.182 73.3103 31.984 72.5783 31.984H69.1763V30.508H72.6323C73.4243 30.508 74.1143 30.664 74.7023 30.976C75.2903 31.276 75.7403 31.69 76.0523 32.218C76.3763 32.746 76.5383 33.352 76.5383 34.036C76.5383 34.744 76.3763 35.362 76.0523 35.89C75.7403 36.418 75.2903 36.832 74.7023 37.132C74.1143 37.42 73.4243 37.564 72.6323 37.564H69.1763ZM68.0423 43V30.508H69.7343V43H68.0423ZM75.2423 43L70.7063 37.402L72.3083 36.844L77.3843 43H75.2423ZM82.8517 43L87.9637 30.508H89.1877L94.2817 43H92.4457L88.2517 32.434H88.8817L84.6517 43H82.8517ZM85.2817 40.174V38.698H91.8517V40.174H85.2817ZM101.202 43V30.508H102.39L102.894 32.47V43H101.202ZM109.842 43L102.174 32.758L102.39 30.508L110.076 40.732L109.842 43ZM109.842 43L109.338 41.146V30.508H111.03V43H109.842ZM124.692 43.18C123.792 43.18 122.958 43.018 122.19 42.694C121.422 42.358 120.75 41.896 120.174 41.308C119.61 40.72 119.172 40.036 118.86 39.256C118.548 38.476 118.392 37.642 118.392 36.754C118.392 35.854 118.548 35.014 118.86 34.234C119.172 33.454 119.61 32.776 120.174 32.2C120.75 31.612 121.416 31.156 122.172 30.832C122.94 30.496 123.774 30.328 124.674 30.328C125.658 30.328 126.522 30.496 127.266 30.832C128.01 31.168 128.67 31.624 129.246 32.2L128.076 33.37C127.68 32.926 127.194 32.578 126.618 32.326C126.054 32.074 125.406 31.948 124.674 31.948C124.014 31.948 123.408 32.068 122.856 32.308C122.304 32.536 121.824 32.866 121.416 33.298C121.008 33.73 120.69 34.24 120.462 34.828C120.246 35.416 120.138 36.058 120.138 36.754C120.138 37.45 120.246 38.092 120.462 38.68C120.69 39.268 121.008 39.778 121.416 40.21C121.824 40.642 122.304 40.978 122.856 41.218C123.408 41.446 124.014 41.56 124.674 41.56C125.454 41.56 126.132 41.434 126.708 41.182C127.284 40.918 127.77 40.564 128.166 40.12L129.336 41.272C128.76 41.872 128.082 42.34 127.302 42.676C126.534 43.012 125.664 43.18 124.692 43.18ZM136.454 43V30.508H138.146V43H136.454ZM137.606 43V41.452H144.77V43H137.606ZM137.606 37.348V35.872H144.176V37.348H137.606ZM137.606 32.056V30.508H144.68V32.056H137.606Z" fill="#B99158"/>
</svg>
